<svg xmlns="http://www.w3.org/2000/svg" enable-background="new 0 0 32 32" viewBox="0 0 32 32"><path d="M31.00287,4.12079c-0.00049-0.00006-0.00146-0.00012-0.00195-0.00018c0.00043,0.00104-8.20184-0.62433-12.40106-0.96326c-0.00488-0.00037-0.00977-0.00073-0.01514-0.00116c-2.97589-0.23114-8.0174,1.70459-11.91089,5.85889c-2.44476,2.60858-5.1485,6.88855-4.72675,12.80188c-1.29742,1.65167-2.17712,3.46973-2.32928,5.42908c-0.06415,0.82562,0.55316,1.54749,1.37933,1.61169c0.82611,0.06415,1.54749-0.55371,1.61163-1.37933c0.08026-1.0332,0.49841-2.05084,1.14801-3.03668c1.05933,0.08582,4.77325,0.39673,7.49768,0.75305c0.32587,0.04193,0.65033,0.07599,0.97406,0.10114c3.19354,0.24805,6.26569-0.34985,8.93768-1.74866c4.64001-2.4292,10.35242-7.49127,11.21533-17.80603c0.03339-0.39801-0.09357-0.79382-0.35303-1.09802C31.76996,4.34003,31.40063,4.15167,31.00287,4.12079z M19.7746,20.88947c-2.39233,1.25311-5.20374,1.71643-8.13135,1.33038c-1.72345-0.22504-3.7851-0.42877-5.38007-0.57361c3.84827-3.40088,9.7254-6.09558,12.57916-7.14105c0.77777-0.28442,1.17773-1.14569,0.89288-1.92395c-0.28479-0.77832-1.1463-1.18121-1.9234-0.89288c-1.13074,0.4129-7.81873,2.96082-12.7655,7.0271c0.49347-3.38568,2.22052-5.94617,3.81653-7.64874c3.05457-3.25952,7.29987-5.0896,9.4881-4.91962c0.00244,0.00018,0.00586,0.00043,0.00824,0.00061c3.07074,0.2464,8.27759,0.64594,10.86316,0.84576C28.08185,14.94269,23.51923,18.92847,19.7746,20.88947z"/></svg>